# Blender v2.90.0 OBJ File: ''
# www.blender.org
mtllib Stone_Wall2.mtl
o Cube_Cube.001
v -0.430000 -0.250000 7.500000
v -0.430000 7.750000 7.500000
v -0.430000 -0.250000 -7.500000
v -0.430000 7.750000 -7.500000
v 0.430000 -0.250000 7.500000
v 0.430000 7.750000 7.500000
v 0.430000 -0.250000 -7.500000
v 0.430000 7.750000 -7.500000
vt 0.375000 0.000000
vt 0.625000 0.000000
vt 0.625000 0.250000
vt 0.375000 0.250000
vt 0.625000 0.500000
vt 0.375000 0.500000
vt 0.272778 0.500000
vt 0.522778 0.500000
vt 0.522778 0.750000
vt 0.272778 0.750000
vt 0.148333 0.827778
vt 0.398333 0.827778
vt 0.398333 1.077778
vt 0.148333 1.077778
vt 0.125000 0.500000
vt 0.375000 0.750000
vt 0.125000 0.750000
vt 0.875000 0.500000
vt 0.875000 0.750000
vt 0.625000 0.750000
vn -1.0000 0.0000 0.0000
vn 0.0000 0.0000 -1.0000
vn 1.0000 0.0000 0.0000
vn 0.0000 0.0000 1.0000
vn 0.0000 -1.0000 0.0000
vn 0.0000 1.0000 0.0000
usemtl Material.001
s off
f 1/1/1 2/2/1 4/3/1 3/4/1
f 3/4/2 4/3/2 8/5/2 7/6/2
f 7/7/3 8/8/3 6/9/3 5/10/3
f 5/11/4 6/12/4 2/13/4 1/14/4
f 3/15/5 7/6/5 5/16/5 1/17/5
f 8/5/6 4/18/6 2/19/6 6/20/6
