# Blender v2.90.0 OBJ File: 'level1.blend'
# www.blender.org
mtllib house1.mtl
o Cube.009_Cube.010
v -8.000348 -0.010000 -14.810941
v -8.000348 8.610001 -14.810941
v -8.800348 -0.010000 -14.810941
v -8.800348 8.610001 -14.810941
v -8.000349 -0.010000 -40.370941
v -8.000349 8.610001 -40.370941
v -8.800349 -0.010000 -40.370941
v -8.800349 8.610001 -40.370941
vt 0.375000 0.000000
vt 0.625000 0.000000
vt 0.625000 0.250000
vt 0.375000 0.250000
vt -2.023865 1.782280
vt -2.045784 -1.017795
vt 3.191198 -1.032280
vt 3.213117 1.767795
vt 0.375000 0.500000
vt 0.625000 0.500000
vt 0.625000 0.750000
vt 0.375000 0.750000
vt -2.625200 2.560340
vt -2.636745 -0.869337
vt 2.707231 -0.876747
vt 2.718777 2.552931
vt -0.005431 0.500000
vt 0.505431 0.500000
vt 0.505431 0.750000
vt -0.005431 0.750000
vt 0.875000 0.500000
vt 0.875000 0.750000
vn 0.0000 0.0000 1.0000
vn -1.0000 0.0000 0.0000
vn 0.0000 0.0000 -1.0000
vn 1.0000 0.0000 -0.0000
vn 0.0000 -1.0000 0.0000
vn 0.0000 1.0000 0.0000
usemtl Material.011
s off
f 1/1/1 2/2/1 4/3/1 3/4/1
f 3/5/2 4/6/2 8/7/2 7/8/2
f 7/9/3 8/10/3 6/11/3 5/12/3
f 5/13/4 6/14/4 2/15/4 1/16/4
f 3/17/5 7/18/5 5/19/5 1/20/5
f 8/10/6 4/21/6 2/22/6 6/11/6
o Cube.008_Cube.009
v -8.010900 -0.010000 -39.580124
v -8.010900 8.610001 -39.580124
v -8.010900 -0.010000 -40.380127
v -8.010900 8.610001 -40.380127
v 17.549099 -0.010000 -39.580124
v 17.549099 8.610001 -39.580124
v 17.549099 -0.010000 -40.380127
v 17.549099 8.610001 -40.380127
vt 0.375000 0.000000
vt 0.625000 0.000000
vt 0.625000 0.250000
vt 0.375000 0.250000
vt -1.210473 1.397206
vt -1.210472 -0.647207
vt 2.210473 -0.647206
vt 2.210473 1.397207
vt 0.375000 0.500000
vt 0.625000 0.500000
vt 0.625000 0.750000
vt 0.375000 0.750000
vt -2.668268 2.150174
vt -2.668268 -0.400174
vt 3.696773 -0.400174
vt 3.696773 2.150174
vt -4.808641 -0.771076
vt 5.781112 -0.771076
vt 5.781112 1.774998
vt -4.808641 1.774998
vt 0.875000 0.500000
vt 0.875000 0.750000
vn -1.0000 0.0000 0.0000
vn 0.0000 0.0000 -1.0000
vn 1.0000 0.0000 0.0000
vn 0.0000 0.0000 1.0000
vn 0.0000 -1.0000 0.0000
vn 0.0000 1.0000 0.0000
usemtl Material.010
s off
f 9/23/7 10/24/7 12/25/7 11/26/7
f 11/27/8 12/28/8 16/29/8 15/30/8
f 15/31/9 16/32/9 14/33/9 13/34/9
f 13/35/10 14/36/10 10/37/10 9/38/10
f 11/39/11 15/40/11 13/41/11 9/42/11
f 16/32/12 12/43/12 10/44/12 14/33/12
o Cube.007_Cube.008
v 18.371571 -0.010000 -14.818765
v 18.371571 8.610001 -14.818765
v 17.571569 -0.010000 -14.818765
v 17.571569 8.610001 -14.818765
v 18.371569 -0.010000 -40.378765
v 18.371569 8.610001 -40.378765
v 17.571568 -0.010000 -40.378765
v 17.571568 8.610001 -40.378765
vt 0.375000 0.000000
vt 0.625000 0.000000
vt 0.625000 0.250000
vt 0.375000 0.250000
vt 1.757578 -0.224444
vt 1.757578 0.974445
vt -0.757578 0.974444
vt -0.757578 -0.224445
vt 0.375000 0.500000
vt 0.625000 0.500000
vt 0.625000 0.750000
vt 0.375000 0.750000
vt 1.123400 0.600463
vt 1.123400 1.149537
vt -0.123400 1.149537
vt -0.123400 0.600463
vt -0.005431 0.500000
vt 0.505431 0.500000
vt 0.505431 0.750000
vt -0.005431 0.750000
vt 0.875000 0.500000
vt 0.875000 0.750000
vn 0.0000 0.0000 1.0000
vn -1.0000 0.0000 0.0000
vn 0.0000 0.0000 -1.0000
vn 1.0000 0.0000 -0.0000
vn 0.0000 -1.0000 0.0000
vn 0.0000 1.0000 0.0000
usemtl Material.009
s off
f 17/45/13 18/46/13 20/47/13 19/48/13
f 19/49/14 20/50/14 24/51/14 23/52/14
f 23/53/15 24/54/15 22/55/15 21/56/15
f 21/57/16 22/58/16 18/59/16 17/60/16
f 19/61/17 23/62/17 21/63/17 17/64/17
f 24/54/18 20/65/18 18/66/18 22/55/18
o Cube.006_Cube.007
v -8.010900 -0.010000 -14.899544
v -8.010900 8.610001 -14.899544
v -8.010900 -0.010000 -15.699543
v -8.010900 8.610001 -15.699543
v 17.549099 -0.010000 -14.899544
v 17.549099 8.610001 -14.899544
v 17.549099 -0.010000 -15.699543
v 17.549099 8.610001 -15.699543
vt 0.375000 0.000000
vt 0.625000 0.000000
vt 0.625000 0.250000
vt 0.375000 0.250000
vt -1.586142 1.382204
vt -1.586141 -0.632204
vt 2.586142 -0.632204
vt 2.586142 1.382204
vt 0.375000 0.500000
vt 0.625000 0.500000
vt 0.625000 0.750000
vt 0.375000 0.750000
vt 2.939245 -0.130550
vt 2.939244 1.880551
vt -1.939245 1.880550
vt -1.939244 -0.130551
vt -2.115149 -0.771076
vt 3.087619 -0.771076
vt 3.087619 1.774998
vt -2.115149 1.774998
vt 0.875000 0.500000
vt 0.875000 0.750000
vn -1.0000 0.0000 0.0000
vn 0.0000 0.0000 -1.0000
vn 1.0000 0.0000 0.0000
vn 0.0000 0.0000 1.0000
vn 0.0000 -1.0000 0.0000
vn 0.0000 1.0000 0.0000
usemtl Material.008
s off
f 25/67/19 26/68/19 28/69/19 27/70/19
f 27/71/20 28/72/20 32/73/20 31/74/20
f 31/75/21 32/76/21 30/77/21 29/78/21
f 29/79/22 30/80/22 26/81/22 25/82/22
f 27/83/23 31/84/23 29/85/23 25/86/23
f 32/76/24 28/87/24 26/88/24 30/77/24
o Cube.005_Cube.006
v 0.777126 0.041450 -14.710769
v 0.777126 6.941450 -14.710769
v 0.777126 0.041450 -15.950768
v 0.777126 6.941450 -15.950768
v 7.917126 0.041450 -14.710769
v 7.917126 6.941450 -14.710769
v 7.917126 0.041450 -15.950768
v 7.917126 6.941450 -15.950768
vt 0.375000 0.000000
vt 0.625000 0.000000
vt 0.625000 0.250000
vt 0.375000 0.250000
vt 1.001191 0.001629
vt 1.001191 0.990558
vt -0.001191 0.990558
vt -0.001191 0.001629
vt 0.375000 0.500000
vt 0.625000 0.500000
vt 0.625000 0.750000
vt 0.375000 0.750000
vt 0.985759 -0.005371
vt 0.985759 0.997558
vt 0.009331 0.997558
vt 0.009331 -0.005371
vt 0.125000 0.500000
vt 0.125000 0.750000
vt 0.875000 0.500000
vt 0.875000 0.750000
vn -1.0000 0.0000 0.0000
vn 0.0000 0.0000 -1.0000
vn 1.0000 0.0000 0.0000
vn 0.0000 0.0000 1.0000
vn 0.0000 -1.0000 0.0000
vn 0.0000 1.0000 0.0000
usemtl Material.007
s off
f 33/89/25 34/90/25 36/91/25 35/92/25
f 35/93/26 36/94/26 40/95/26 39/96/26
f 39/97/27 40/98/27 38/99/27 37/100/27
f 37/101/28 38/102/28 34/103/28 33/104/28
f 35/105/29 39/97/29 37/100/29 33/106/29
f 40/98/30 36/107/30 34/108/30 38/99/30
o Plane.002
v -7.919744 0.057573 -14.782292
v 17.480255 0.057573 -14.782292
v -7.919744 0.057573 -40.182293
v 17.480255 0.057573 -40.182293
vt -2.368078 -2.368078
vt 3.368078 -2.368078
vt 3.368078 3.368078
vt -2.368078 3.368078
vn 0.0000 1.0000 0.0000
usemtl Material.014
s off
f 41/109/31 42/110/31 44/111/31 43/112/31
