# Blender v2.90.0 OBJ File: 'level1.blend'
# www.blender.org
mtllib house1LeftWall.mtl
o Cube_Cube.001
v -43.897125 -0.010000 -14.810941
v -43.897125 8.610001 -14.810941
v -44.697124 -0.010000 -14.810941
v -44.697124 8.610001 -14.810941
v -43.897129 -0.010000 -40.370941
v -43.897129 8.610001 -40.370941
v -44.697128 -0.010000 -40.370941
v -44.697128 8.610001 -40.370941
vt 0.375000 0.000000
vt 0.625000 0.000000
vt 0.625000 0.250000
vt 0.375000 0.250000
vt -0.680305 1.522615
vt -0.690929 -0.760803
vt 1.847638 -0.772615
vt 1.858263 1.510803
vt 0.375000 0.500000
vt 0.625000 0.500000
vt 0.625000 0.750000
vt 0.375000 0.750000
vt -0.971951 1.859150
vt -0.976337 -0.171170
vt 1.053982 -0.175556
vt 1.058369 1.854763
vt -0.005431 0.500000
vt 0.505431 0.500000
vt 0.505431 0.750000
vt -0.005431 0.750000
vt 0.875000 0.500000
vt 0.875000 0.750000
vn 0.0000 0.0000 1.0000
vn -1.0000 0.0000 0.0000
vn 0.0000 0.0000 -1.0000
vn 1.0000 0.0000 -0.0000
vn 0.0000 -1.0000 -0.0000
vn 0.0000 1.0000 -0.0000
usemtl Material.001
s off
f 1/1/1 2/2/1 4/3/1 3/4/1
f 3/5/2 4/6/2 8/7/2 7/8/2
f 7/9/3 8/10/3 6/11/3 5/12/3
f 5/13/4 6/14/4 2/15/4 1/16/4
f 3/17/5 7/18/5 5/19/5 1/20/5
f 8/10/6 4/21/6 2/22/6 6/11/6
