# Blender v2.90.0 OBJ File: 'level1.blend'
# www.blender.org
mtllib house1BackWall.mtl
o Cube.001_Cube.002
v -43.907677 -0.010000 -39.580124
v -43.907677 8.610001 -39.580124
v -43.907677 -0.010000 -40.380127
v -43.907677 8.610001 -40.380127
v -18.347679 -0.010000 -39.580124
v -18.347679 8.610001 -39.580124
v -18.347679 -0.010000 -40.380127
v -18.347679 8.610001 -40.380127
vt 0.375000 0.000000
vt 0.625000 0.000000
vt 0.625000 0.250000
vt 0.375000 0.250000
vt -0.522207 1.397206
vt -0.522206 -0.647207
vt 1.522207 -0.647206
vt 1.522206 1.397207
vt 0.375000 0.500000
vt 0.625000 0.500000
vt 0.625000 0.750000
vt 0.375000 0.750000
vt -0.583733 1.958733
vt -0.583733 -0.208733
vt 1.583733 -0.208733
vt 1.583733 1.958733
vt -2.115149 -0.771076
vt 3.087619 -0.771076
vt 3.087619 1.774998
vt -2.115149 1.774998
vt 0.875000 0.500000
vt 0.875000 0.750000
vn -1.0000 0.0000 0.0000
vn 0.0000 0.0000 -1.0000
vn 1.0000 0.0000 0.0000
vn 0.0000 0.0000 1.0000
vn 0.0000 -1.0000 0.0000
vn 0.0000 1.0000 0.0000
usemtl Material.003
s off
f 1/1/1 2/2/1 4/3/1 3/4/1
f 3/5/2 4/6/2 8/7/2 7/8/2
f 7/9/3 8/10/3 6/11/3 5/12/3
f 5/13/4 6/14/4 2/15/4 1/16/4
f 3/17/5 7/18/5 5/19/5 1/20/5
f 8/10/6 4/21/6 2/22/6 6/11/6
