# Blender v2.90.0 OBJ File: 'level1.blend'
# www.blender.org
mtllib lightwallfront.mtl
o Cube.011_Cube.012
v -38.207199 -0.010000 16.002876
v -38.207199 8.610001 16.002876
v -38.207199 -0.010000 15.202876
v -38.207199 8.610001 15.202876
v -12.647199 -0.010000 16.002876
v -12.647199 8.610001 16.002876
v -12.647199 -0.010000 15.202876
v -12.647199 8.610001 15.202876
vt 0.375000 0.000000
vt 0.625000 0.000000
vt 0.625000 0.250000
vt 0.375000 0.250000
vt -1.210473 1.397206
vt -1.210472 -0.647207
vt 2.210473 -0.647206
vt 2.210473 1.397207
vt 0.375000 0.500000
vt 0.625000 0.500000
vt 0.625000 0.750000
vt 0.375000 0.750000
vt -2.668268 2.150174
vt -2.668268 -0.400174
vt 3.696773 -0.400174
vt 3.696773 2.150174
vt -4.808641 -0.771076
vt 5.781112 -0.771076
vt 5.781112 1.774998
vt -4.808641 1.774998
vt 0.875000 0.500000
vt 0.875000 0.750000
vn -1.0000 0.0000 0.0000
vn 0.0000 0.0000 -1.0000
vn 1.0000 0.0000 0.0000
vn 0.0000 0.0000 1.0000
vn 0.0000 -1.0000 0.0000
vn 0.0000 1.0000 0.0000
usemtl Material.016
s off
f 1/1/1 2/2/1 4/3/1 3/4/1
f 3/5/2 4/6/2 8/7/2 7/8/2
f 7/9/3 8/10/3 6/11/3 5/12/3
f 5/13/4 6/14/4 2/15/4 1/16/4
f 3/17/5 7/18/5 5/19/5 1/20/5
f 8/10/6 4/21/6 2/22/6 6/11/6
