# Blender v2.90.0 OBJ File: 'level1.blend'
# www.blender.org
mtllib lightinnerwall2.mtl
o Cube.019_Cube.021
v -29.862627 -0.010000 40.764236
v -29.862627 8.610001 40.764236
v -30.662628 -0.010000 40.764236
v -30.662628 8.610001 40.764236
v -29.862629 -0.010000 15.204238
v -29.862629 8.610001 15.204238
v -30.662630 -0.010000 15.204238
v -30.662630 8.610001 15.204238
vt 0.375000 0.000000
vt 0.625000 0.000000
vt 0.625000 0.250000
vt 0.375000 0.250000
vt 1.757578 -0.224444
vt 1.757578 0.974445
vt -0.757578 0.974444
vt -0.757578 -0.224445
vt 0.375000 0.500000
vt 0.625000 0.500000
vt 0.625000 0.750000
vt 0.375000 0.750000
vt 1.123400 0.600463
vt 1.123400 1.149537
vt -0.123400 1.149537
vt -0.123400 0.600463
vt -0.005431 0.500000
vt 0.505431 0.500000
vt 0.505431 0.750000
vt -0.005431 0.750000
vt 0.875000 0.500000
vt 0.875000 0.750000
vn 0.0000 0.0000 1.0000
vn -1.0000 0.0000 0.0000
vn 0.0000 0.0000 -1.0000
vn 1.0000 0.0000 -0.0000
vn 0.0000 -1.0000 0.0000
vn 0.0000 1.0000 0.0000
usemtl Material.026
s off
f 1/1/1 2/2/1 4/3/1 3/4/1
f 3/5/2 4/6/2 8/7/2 7/8/2
f 7/9/3 8/10/3 6/11/3 5/12/3
f 5/13/4 6/14/4 2/15/4 1/16/4
f 3/17/5 7/18/5 5/19/5 1/20/5
f 8/10/6 4/21/6 2/22/6 6/11/6
